<?xml version="1.0" encoding="UTF-8"?>
<svg xmlns="http://www.w3.org/2000/svg" xmlns:xlink="http://www.w3.org/1999/xlink" width="37.5pt" height="37.499999pt" viewBox="0 0 37.5 37.499999" version="1.2">
<defs>
<clipPath id="clip1">
  <path d="M 0.710938 0.710938 L 36.710938 0.710938 L 36.710938 36.710938 L 0.710938 36.710938 Z M 0.710938 0.710938 "/>
</clipPath>
</defs>
<g id="surface1">
<g clip-path="url(#clip1)" clip-rule="nonzero">
<path style=" stroke:none;fill-rule:nonzero;fill:rgb(92.158508%,95.289612%,100%);fill-opacity:1;" d="M 36.710938 18.710938 C 36.710938 19.300781 36.683594 19.890625 36.625 20.476562 C 36.566406 21.0625 36.480469 21.644531 36.367188 22.222656 C 36.25 22.800781 36.109375 23.375 35.9375 23.9375 C 35.765625 24.5 35.566406 25.054688 35.34375 25.601562 C 35.117188 26.144531 34.863281 26.675781 34.585938 27.199219 C 34.308594 27.71875 34.007812 28.222656 33.679688 28.710938 C 33.351562 29.203125 33 29.675781 32.625 30.132812 C 32.253906 30.585938 31.855469 31.023438 31.441406 31.441406 C 31.023438 31.855469 30.585938 32.253906 30.132812 32.625 C 29.675781 33 29.203125 33.351562 28.710938 33.679688 C 28.222656 34.007812 27.71875 34.308594 27.199219 34.585938 C 26.675781 34.863281 26.144531 35.117188 25.601562 35.34375 C 25.054688 35.566406 24.5 35.765625 23.9375 35.9375 C 23.375 36.109375 22.800781 36.25 22.222656 36.367188 C 21.644531 36.480469 21.0625 36.566406 20.476562 36.625 C 19.890625 36.683594 19.300781 36.710938 18.710938 36.710938 C 18.121094 36.710938 17.535156 36.683594 16.949219 36.625 C 16.363281 36.566406 15.777344 36.480469 15.199219 36.367188 C 14.621094 36.25 14.050781 36.109375 13.488281 35.9375 C 12.921875 35.765625 12.367188 35.566406 11.824219 35.34375 C 11.28125 35.117188 10.746094 34.863281 10.226562 34.585938 C 9.707031 34.308594 9.203125 34.007812 8.710938 33.679688 C 8.222656 33.351562 7.75 33 7.292969 32.625 C 6.835938 32.253906 6.402344 31.855469 5.984375 31.441406 C 5.566406 31.023438 5.171875 30.585938 4.796875 30.132812 C 4.425781 29.675781 4.074219 29.203125 3.746094 28.710938 C 3.417969 28.222656 3.117188 27.71875 2.839844 27.199219 C 2.558594 26.675781 2.308594 26.144531 2.082031 25.601562 C 1.855469 25.054688 1.660156 24.5 1.488281 23.9375 C 1.316406 23.375 1.171875 22.800781 1.058594 22.222656 C 0.941406 21.644531 0.855469 21.0625 0.800781 20.476562 C 0.742188 19.890625 0.710938 19.300781 0.710938 18.710938 C 0.710938 18.121094 0.742188 17.535156 0.800781 16.949219 C 0.855469 16.363281 0.941406 15.777344 1.058594 15.199219 C 1.171875 14.621094 1.316406 14.050781 1.488281 13.488281 C 1.660156 12.921875 1.855469 12.367188 2.082031 11.824219 C 2.308594 11.28125 2.558594 10.746094 2.839844 10.226562 C 3.117188 9.707031 3.417969 9.203125 3.746094 8.710938 C 4.074219 8.222656 4.425781 7.75 4.796875 7.292969 C 5.171875 6.835938 5.566406 6.402344 5.984375 5.984375 C 6.402344 5.566406 6.835938 5.171875 7.292969 4.796875 C 7.75 4.425781 8.222656 4.074219 8.710938 3.746094 C 9.203125 3.417969 9.707031 3.117188 10.226562 2.839844 C 10.746094 2.558594 11.28125 2.308594 11.824219 2.082031 C 12.367188 1.855469 12.921875 1.660156 13.488281 1.488281 C 14.050781 1.316406 14.621094 1.171875 15.199219 1.058594 C 15.777344 0.941406 16.363281 0.855469 16.949219 0.800781 C 17.535156 0.742188 18.121094 0.710938 18.710938 0.710938 C 19.300781 0.710938 19.890625 0.742188 20.476562 0.800781 C 21.0625 0.855469 21.644531 0.941406 22.222656 1.058594 C 22.800781 1.171875 23.375 1.316406 23.9375 1.488281 C 24.5 1.660156 25.054688 1.855469 25.601562 2.082031 C 26.144531 2.308594 26.675781 2.558594 27.199219 2.839844 C 27.71875 3.117188 28.222656 3.417969 28.710938 3.746094 C 29.203125 4.074219 29.675781 4.425781 30.132812 4.796875 C 30.585938 5.171875 31.023438 5.566406 31.441406 5.984375 C 31.855469 6.402344 32.253906 6.835938 32.625 7.292969 C 33 7.75 33.351562 8.222656 33.679688 8.710938 C 34.007812 9.203125 34.308594 9.707031 34.585938 10.226562 C 34.863281 10.746094 35.117188 11.28125 35.34375 11.824219 C 35.566406 12.367188 35.765625 12.921875 35.9375 13.488281 C 36.109375 14.050781 36.25 14.621094 36.367188 15.199219 C 36.480469 15.777344 36.566406 16.363281 36.625 16.949219 C 36.683594 17.535156 36.710938 18.121094 36.710938 18.710938 Z M 36.710938 18.710938 "/>
</g>
<path style=" stroke:none;fill-rule:nonzero;fill:rgb(26.269531%,34.118652%,67.83905%);fill-opacity:1;" d="M 27.957031 25.152344 L 21.515625 18.710938 L 27.957031 12.273438 L 25.152344 9.46875 L 18.710938 15.910156 L 12.273438 9.46875 L 9.46875 12.273438 L 15.910156 18.710938 L 9.46875 25.152344 L 12.273438 27.957031 L 18.710938 21.515625 L 25.152344 27.957031 Z M 27.957031 25.152344 "/>
</g>
</svg>
